<?xml version="1.0" encoding="UTF-8" standalone="no"?><!DOCTYPE svg PUBLIC "-//W3C//DTD SVG 1.1//EN" "http://www.w3.org/Graphics/SVG/1.1/DTD/svg11.dtd"><svg width="100%" height="100%" viewBox="0 0 838 2055" version="1.1" xmlns="http://www.w3.org/2000/svg" xmlns:xlink="http://www.w3.org/1999/xlink" xml:space="preserve" xmlns:serif="http://www.serif.com/" style="fill-rule:evenodd;clip-rule:evenodd;stroke-linejoin:round;stroke-miterlimit:2;"><g id="layer2"><path d="M504.387,1226.27c189.317,39.249 331.78,207.117 331.78,407.998c-0,229.964 -186.702,416.666 -416.667,416.666c-229.965,0 -416.667,-186.702 -416.667,-416.666c0,-173.55 106.335,-322.46 257.351,-385.077l-2.422,0.228l-2.036,-1083.9l163.774,-161.635l85.895,76.245l84.882,84.249l0.999,81.853l-85.129,78.434l-2.975,176.234l85.387,86.773l-0.086,70.982l-86,89.609l3.164,85.424l84.963,79.157l-0.351,86.953l-84.317,86.263l-1.545,140.208Z" style="fill:#a4a4a4;"/></g></svg>