<?xml version="1.0" encoding="UTF-8" standalone="no"?><!DOCTYPE svg PUBLIC "-//W3C//DTD SVG 1.1//EN" "http://www.w3.org/Graphics/SVG/1.1/DTD/svg11.dtd"><svg width="100%" height="100%" viewBox="0 0 2671 2675" version="1.1" xmlns="http://www.w3.org/2000/svg" xmlns:xlink="http://www.w3.org/1999/xlink" xml:space="preserve" xmlns:serif="http://www.serif.com/" style="fill-rule:evenodd;clip-rule:evenodd;stroke-linejoin:round;stroke-miterlimit:2;"><g id="layer4"><path d="M1337.33,3.397c735.887,-0 1333.33,598.553 1333.33,1335.8c-0,737.249 -597.447,1335.8 -1333.33,1335.8c-735.886,0 -1333.33,-598.553 -1333.33,-1335.8c0,-737.248 597.447,-1335.8 1333.33,-1335.8Zm301.073,1482.7c-92.711,3.401 -126.17,188.272 -149.37,384.122c-23.132,195.277 -49.16,569.355 -31.792,567.535c531.763,-55.731 779.99,-428.705 882.454,-626.939c75.344,-145.767 96.561,-315.583 101.532,-367.917c12.139,-127.8 -387.077,27.948 -802.824,43.199Zm-602.448,0c-415.747,-15.251 -814.963,-170.999 -802.824,-43.199c4.971,52.334 26.188,222.15 101.533,367.917c102.463,198.234 350.69,571.208 882.454,626.939c17.368,1.82 -8.661,-372.258 -31.793,-567.535c-23.2,-195.85 -56.658,-380.721 -149.37,-384.122Zm301.375,-1248.59c-609.406,-0 -1108.82,545.207 -1104.17,972.469c1.496,137.334 506.191,-142.499 1115.6,-142.499c609.406,-0 1097.8,268.922 1092.74,133.146c-17.932,-480.609 -494.76,-963.116 -1104.17,-963.116Z" style="fill:#cbdd78;"/></g></svg>